 <!DOCTYPE svg PUBLIC "-//W3C//DTD SVG 1.1//EN" "http://www.w3.org/Graphics/SVG/1.1/DTD/svg11.dtd">
<svg xmlns="http://www.w3.org/2000/svg" width="865.76" height="682.89" viewBox="0 0 865.76 682.89">
<defs>
<style xmlns="http://www.w3.org/1999/xhtml">*, ::after, ::before { box-sizing: border-box; }
img, svg { vertical-align: middle; }
</style>
<style xmlns="http://www.w3.org/1999/xhtml">*, body, html { -webkit-font-smoothing: antialiased; }
img, svg { max-width: 100%; }
</style>
</defs>
<rect x="721.84" y="632.63" width="57.38" height="0.43" fill="#ebebeb"/>
<rect x="558.54" y="637.34" width="15.06" height="0.43" fill="#ebebeb"/>
<rect x="686.86" y="616.55" width="33.25" height="0.43" fill="#ebebeb"/>
<rect x="90.63" y="619.46" width="74.83" height="0.43" fill="#ebebeb"/>
<rect x="180.89" y="619.46" width="10.97" height="0.43" fill="#ebebeb"/>
<rect x="227.52" y="626.78" width="162.31" height="0.43" fill="#ebebeb"/>
<path d="M412.78,527.48H78.22a9.89,9.89,0,0,1-9.89-9.89V47.32a9.9,9.9,0,0,1,9.89-9.81H412.78a9.89,9.89,0,0,1,9.9,9.89h0V517.59A9.89,9.89,0,0,1,412.78,527.48ZM78.22,37.86a9.48,9.48,0,0,0-9.46,9.46V517.59a9.48,9.48,0,0,0,9.46,9.46H412.78a9.48,9.48,0,0,0,9.46-9.46V47.32a9.48,9.48,0,0,0-9.46-9.46Z" fill="#ebebeb"/>
<path d="M787.54,527.48H453a9.89,9.89,0,0,1-9.9-9.89V47.32a9.9,9.9,0,0,1,9.9-9.81H787.54a9.89,9.89,0,0,1,9.89,9.89V517.59A9.89,9.89,0,0,1,787.54,527.48ZM453,37.86a9.48,9.48,0,0,0-9.46,9.46V517.59a9.48,9.48,0,0,0,9.46,9.46H787.54a9.48,9.48,0,0,0,9.46-9.46V47.32a9.48,9.48,0,0,0-9.46-9.46Z" fill="#ebebeb"/>
<rect x="-0.26" y="604.76" width="866.29" height="0.43" fill="#ebebeb"/>
<rect x="92.22" y="256.84" width="190.39" height="347.66" fill="#ebebeb"/>
<rect x="120.13" y="214.34" width="134.57" height="23.06" fill="#f0f0f0"/>
<rect x="102.01" y="265.28" width="170.81" height="339.22" fill="#fafafa"/>
<rect x="102.01" y="418.71" width="170.81" height="43.18" fill="#f0f0f0"/>
<rect x="102.01" y="561.8" width="170.81" height="43.18" fill="#f0f0f0"/>
<path d="M261.36,456.45v-34a3.27,3.27,0,0,0-3.24-3.28h0a3.28,3.28,0,0,0-3.28,3.28h0v34a3.3,3.3,0,0,0,3.28,3.29h0A3.3,3.3,0,0,0,261.36,456.45Z" fill="#fff"/>
<rect x="115.35" y="270.63" width="29.71" height="142.83" fill="#e0e0e0"/>
<rect x="118.33" y="273.8" width="24" height="136.44" fill="#ebebeb"/>
<polygon points="142.31 293.08 118.33 302.51 118.33 325.62 142.31 316.19 142.31 293.08" fill="#f5f5f5"/>
<polygon points="142.31 320.91 118.33 330.33 118.33 339.19 142.31 329.76 142.31 320.91" fill="#f5f5f5"/>
<polygon points="142.31 369 118.33 378.43 118.33 387.28 142.31 377.86 142.31 369" fill="#f5f5f5"/>
<path d="M671,129.34a14.4,14.4,0,0,1-14.4,14.4H550.69a14.42,14.42,0,0,1,0-28.82H656.57A14.41,14.41,0,0,1,671,129.34Z" fill="#f5f5f5"/>
<path d="M628.23,117v24.81h-76.6a12.41,12.41,0,0,1,0-24.81Z" fill="#e6e6e6"/>
<path d="M544.41,192.07a20.21,20.21,0,0,1-19,20.17H470.72a20.22,20.22,0,0,1-.26-40.28,28.92,28.92,0,0,1,57.75.33A20.18,20.18,0,0,1,544.41,192.07Z" fill="#f5f5f5"/>
<polygon points="516.94 242.34 498.89 260.41 480.8 242.34 487.92 242.34 487.92 212.48 510.88 212.48 510.88 242.34 516.94 242.34" fill="#e6e6e6"/>
<path d="M730.66,416.44a25.52,25.52,0,0,0-1.09-7.36L736,403.4,732,396.34l-8.16,2.76A25.24,25.24,0,0,0,711,391.74l-1.73-8.44h-8.14l-1.73,8.44a25.34,25.34,0,0,0-12.77,7.36l-8.15-2.76-4.07,7.06,6.46,5.68a25.48,25.48,0,0,0,0,14.73l-6.46,5.68,4.07,7.05,8.15-2.77a25.4,25.4,0,0,0,12.77,7.38l1.73,8.44h8.14l1.73-8.44a25.34,25.34,0,0,0,12.76-7.38l8.16,2.77,4.07-7.05-6.46-5.62A25.22,25.22,0,0,0,730.66,416.44Zm-25.37,13.69a13.19,13.19,0,1,1,13.19-13.19h0a13.19,13.19,0,0,1-13.19,13.19Z" fill="#e0e0e0"/>
<path d="M766.63,439.19a18.91,18.91,0,0,0-2.76-4.69l2.84-5.62L762,425.21l-4.78,4.09a18.42,18.42,0,0,0-10.65-1.53l-3.47-5.19-5.51,2.21,1.15,6.19a18.63,18.63,0,0,0-6.66,8.47l-6.27.35-.85,5.89,5.93,2.09a18.73,18.73,0,0,0,4,10l-2.84,5.62,4.67,3.67,4.79-4.09a18.58,18.58,0,0,0,10.65,1.54l3.47,5.2,5.52-2.2L760,461.32a18.57,18.57,0,0,0,6.65-8.48l6.28-.36.85-5.87-5.93-2.1A19,19,0,0,0,766.63,439.19Zm-13.48,16.2a9.65,9.65,0,1,1,5.34-12.56v0a9.63,9.63,0,0,1-5.33,12.53Z" fill="#ebebeb"/>
<rect x="680.35" y="219.65" width="87.11" height="100.97" transform="translate(449.99 992.62) rotate(-89.7)" fill="#e0e0e0"/>
<rect x="716.04" y="167.95" width="16.3" height="100.97" transform="translate(501.97 941.48) rotate(-89.7)" fill="#e6e6e6"/>
<polygon points="670.24 310.98 771.23 311.52 774.63 226.85 673.65 226.33 670.24 310.98" fill="#f5f5f5"/>
<polygon points="696.11 247.24 746.09 247.5 746.7 232.6 696.7 232.34 696.11 247.24" fill="#ebebeb"/>
<polygon points="753.74 266.8 767.09 266.87 767.63 253.51 754.27 253.44 753.74 266.8" fill="#e0e0e0"/>
<polygon points="734.8 266.7 748.14 266.76 748.68 253.42 735.34 253.34 734.8 266.7" fill="#e0e0e0"/>
<polygon points="753.01 284.8 766.37 284.87 766.9 271.51 753.54 271.44 753.01 284.8" fill="#e0e0e0"/>
<polygon points="752.3 302.8 765.64 302.87 766.17 289.53 752.83 289.46 752.3 302.8" fill="#ebebeb"/>
<polygon points="734.07 284.7 747.43 284.77 747.97 271.43 734.61 271.36 734.07 284.7" fill="#e0e0e0"/>
<polygon points="715.13 284.59 728.49 284.66 729.03 271.32 715.67 271.25 715.13 284.59" fill="#e0e0e0"/>
<polygon points="696.2 284.51 709.55 284.58 710.07 271.22 696.73 271.15 696.2 284.51" fill="#e0e0e0"/>
<polygon points="677.26 284.4 690.6 284.47 691.14 271.13 677.8 271.04 677.26 284.4" fill="#e0e0e0"/>
<polygon points="733.34 302.7 746.7 302.77 747.24 289.43 733.88 289.36 733.34 302.7" fill="#ebebeb"/>
<polygon points="714.41 302.61 727.76 302.68 728.3 289.32 714.94 289.25 714.41 302.61" fill="#ebebeb"/>
<polygon points="695.47 302.51 708.83 302.58 709.36 289.22 696.01 289.15 695.47 302.51" fill="#e0e0e0"/>
<polygon points="715.86 266.59 729.2 266.66 729.74 253.32 716.4 253.25 715.86 266.59" fill="none"/>
<polygon points="715.86 266.59 729.2 266.66 729.74 253.32 716.4 253.25 715.86 266.59" fill="#ebebeb"/>
<polygon points="696.92 266.49 710.26 266.57 710.8 253.22 697.46 253.15 696.92 266.49" fill="none"/>
<polygon points="696.92 266.49 710.26 266.57 710.8 253.22 697.46 253.15 696.92 266.49" fill="#ebebeb"/>
<polygon points="677.97 266.4 691.33 266.47 691.87 253.11 678.51 253.04 677.97 266.4" fill="none"/>
<polygon points="677.97 266.4 691.33 266.47 691.87 253.11 678.51 253.04 677.97 266.4" fill="#ebebeb"/>
<polygon points="676.53 302.4 689.89 302.47 690.41 289.13 677.07 289.06 676.53 302.4" fill="#e0e0e0"/>
<path d="M724,205.85a5.84,5.84,0,1,0,5.82,5.85v0A5.81,5.81,0,0,0,724,205.85Zm0,10.25a4.44,4.44,0,1,1,4.42-4.45v0A4.43,4.43,0,0,1,724,216.1Z" fill="#e6e6e6"/>
<path d="M300.05,607.77a26.49,26.49,0,0,1-4.17-.28c-58.66-3.77-56-114.84-55.9-119.56l3.91.13c0,1.11-2.68,112.13,52.33,115.54h.27c.83.15,20.67,3.73,32.69-18.3l.37-.68c9.87-17.2,16.52-59.09,20.34-91.23,6-50.58,7.72-128.59,7.82-129.37,2.23-24.07,13.89-35.28,36.71-35.43l20.52.15v3.91l-20.51-.15c-20.91.13-30.73,9.62-32.84,31.74,0,.64-1.73,78.85-7.83,129.62-5.64,47.28-12.65,78.49-20.85,92.72l-.32.58C322.72,605.36,307.47,607.77,300.05,607.77Z" fill="#2f2e41" data-secondary="true"/>
<path d="M255.07,515.88a4.7,4.7,0,0,1-4.32,5H234.42a4.69,4.69,0,0,1-4.69-4.39l-2.11-30.11H253Z" fill="#2f2e41" data-secondary="true"/>
<path d="M128.11,72.14h12.18a20.41,20.41,0,0,0-20.72,20.12,17.42,17.42,0,0,0,.08,2.17L145.5,464.3a24.2,24.2,0,0,0,23.81,22.13H157.12a24.21,24.21,0,0,1-23.79-22.21L107.46,94.43a20.43,20.43,0,0,1,18.48-22.2A19.69,19.69,0,0,1,128.11,72.14Z" fill="#407bff"/>
<path d="M128.11,72.14h12.18a20.41,20.41,0,0,0-20.72,20.12,17.42,17.42,0,0,0,.08,2.17L145.5,464.3a24.2,24.2,0,0,0,23.81,22.13H157.12c-12.26,0-24.61-9.95-25.47-22.21L105.74,94.43C104.88,82.09,115.85,72.14,128.11,72.14Z" fill="#2f2e41" data-secondary="true"/>
<path d="M160.71,486.43h149.2a20.43,20.43,0,0,0,20.72-20.13,20.66,20.66,0,0,0-.08-2.08L304.7,94.43a24.2,24.2,0,0,0-23.78-22.21H131.77A20.43,20.43,0,0,0,111,92.32c0,.7,0,1.41.07,2.11L137,464.3A24.2,24.2,0,0,0,160.71,486.43Z" fill="#0071f2" data-primary="true"/>
<g opacity="0.6">
<path d="M280.53,79.28a16.84,16.84,0,0,1,16.52,15.45l25.87,369.86a13.47,13.47,0,0,1-12.17,14.65,12.54,12.54,0,0,1-1.5.06H160.07a16.86,16.86,0,0,1-16.54-15.46L117.69,94A13.44,13.44,0,0,1,129.8,79.33a11.62,11.62,0,0,1,1.56,0Z" fill="#fff"/>
</g>
<polygon points="312.32 380.05 142.77 380.05 125.95 139.7 295.52 139.7 312.32 380.05" fill="#0071f2" data-primary="true"/>
<g opacity="0.8" style="isolation:isolate">
<polygon points="312.32 380.05 142.77 380.05 125.95 139.7 295.52 139.7 312.32 380.05" fill="#fff"/>
</g>
<path d="M176.19,345.3a2.36,2.36,0,0,1,2.09-2.58,2.8,2.8,0,0,1,.41,0,2.74,2.74,0,0,1,2,.84l-.57.57a1.81,1.81,0,0,0-1.37-.58,1.57,1.57,0,0,0-1.67,1.45,1.51,1.51,0,0,0,0,.3,1.87,1.87,0,0,0,1.91,1.77,1.58,1.58,0,0,0,1.3-.6l.64.58a2.41,2.41,0,0,1-1.94.83A2.76,2.76,0,0,1,176.19,345.3Z" fill="#2f2e41" data-secondary="true"/>
<path d="M186,342.8l.34,5h-.92l-.16-2.16H182.7l.15,2.16h-.93l-.35-5h.94l.14,2.06h2.6l-.16-2.06Z" fill="#2f2e41" data-secondary="true"/>
<path d="M191.43,347v.78h-3.76l-.34-5H191v.78h-2.72v1.3h2.42v.76h-2.42l.09,1.4Z" fill="#2f2e41" data-secondary="true"/>
<path d="M192,345.3a2.37,2.37,0,0,1,2.12-2.58,2.41,2.41,0,0,1,.38,0,2.69,2.69,0,0,1,2,.84l-.56.57a1.85,1.85,0,0,0-1.38-.58,1.56,1.56,0,0,0-1.68,1.44,1.08,1.08,0,0,0,0,.31,1.88,1.88,0,0,0,1.92,1.77,1.59,1.59,0,0,0,1.28-.6l.64.58a2.34,2.34,0,0,1-1.92.83A2.78,2.78,0,0,1,192,345.3Z" fill="#2f2e41" data-secondary="true"/>
<path d="M199.28,345.71l-.74.82.1,1.29h-.94l-.35-5h.93l.18,2.56,2.29-2.56h1.05L199.86,345l2.42,2.79h-1.09Z" fill="#2f2e41" data-secondary="true"/>
<path d="M202.56,342.8h.94l.34,5h-.92Z" fill="#2f2e41" data-secondary="true"/>
<path d="M209.3,342.8l.35,5h-.77l-3-3.4.25,3.4h-.85l-.36-5h.77l3,3.39-.23-3.39Z" fill="#2f2e41" data-secondary="true"/>
<path d="M214.25,345.25h.87l.14,2a3,3,0,0,1-1.92.64,2.79,2.79,0,0,1-2.88-2.58,2.38,2.38,0,0,1,2.16-2.58,2.29,2.29,0,0,1,.37,0,2.72,2.72,0,0,1,2.07.83l-.55.56a1.94,1.94,0,0,0-1.41-.56,1.56,1.56,0,0,0-1.71,1.4,1.37,1.37,0,0,0,0,.35,1.9,1.9,0,0,0,1.94,1.77,2.17,2.17,0,0,0,1-.25Z" fill="#2f2e41" data-secondary="true"/>
<path d="M219.13,343.58l.11,1.56h2.42v.8h-2.3v1.88h-.92l-.36-5h3.66v.78Z" fill="#2f2e41" data-secondary="true"/>
<path d="M222.49,345.3a2.37,2.37,0,0,1,2.12-2.58,2.67,2.67,0,0,1,.4,0,2.79,2.79,0,0,1,2.87,2.58,2.36,2.36,0,0,1-2.12,2.58h-.39A2.79,2.79,0,0,1,222.49,345.3Zm4.46,0a1.86,1.86,0,0,0-1.9-1.75,1.56,1.56,0,0,0-1.57,1.55,1.34,1.34,0,0,0,0,.2,1.86,1.86,0,0,0,1.88,1.77,1.59,1.59,0,0,0,1.56-1.77Z" fill="#2f2e41" data-secondary="true"/>
<path d="M232.31,347.82l-1.12-1.47h-1.33l.11,1.47H229l-.35-5h2c1.33,0,2.19.67,2.27,1.78a1.56,1.56,0,0,1-.95,1.56l1.26,1.66Zm-1.56-4.24h-1.08l.14,2h1.08c.81,0,1.22-.37,1.17-1S231.56,343.58,230.75,343.58Z" fill="#2f2e41" data-secondary="true"/>
<path d="M236,345.63l-.18-2.83h.92l.2,2.8a1.29,1.29,0,0,0,1.38,1.47c.81,0,1.23-.44,1.16-1.47l-.19-2.8h.91l.2,2.83a1.88,1.88,0,0,1-2,2.25,2.21,2.21,0,0,1-2.36-2A1.48,1.48,0,0,1,236,345.63Z" fill="#2f2e41" data-secondary="true"/>
<path d="M245.86,344.58c.07,1.11-.69,1.78-2,1.78h-1.13l.1,1.46h-.93l-.34-5h2.05C244.92,342.8,245.78,343.47,245.86,344.58Zm-.94,0c0-.63-.5-1-1.32-1h-1.07l.14,2h1.08C244.56,345.58,245,345.21,244.92,344.58Z" fill="#2f2e41" data-secondary="true"/>
<path d="M246.65,342.8h2.19a2.68,2.68,0,0,1,2.91,2.45v.05a2.28,2.28,0,0,1-2,2.52,2.44,2.44,0,0,1-.54,0H247Zm2.44,4.22a1.56,1.56,0,0,0,1.72-1.39.91.91,0,0,0,0-.33,1.8,1.8,0,0,0-1.9-1.72h-1.27l.25,3.44Z" fill="#2f2e41" data-secondary="true"/>
<path d="M256,346.64h-2.5l-.42,1.18h-.89l1.91-5h.9l2.61,5h-1Zm-.36-.72-1.09-2.2-.8,2.2Z" fill="#2f2e41" data-secondary="true"/>
<path d="M258.68,343.58H257v-.78h4.26v.78h-1.67l.29,4.24H259Z" fill="#2f2e41" data-secondary="true"/>
<path d="M266,347v.78H262.2l-.34-5h3.66v.78H262.8l.09,1.3h2.41v.76h-2.43l.1,1.4Z" fill="#2f2e41" data-secondary="true"/>
<path d="M266.61,347.29l.27-.72a3.06,3.06,0,0,0,1.69.54c.78,0,1.09-.28,1.06-.65,0-1.08-3-.38-3.13-2.24,0-.81.53-1.56,1.91-1.56a3.22,3.22,0,0,1,1.71.45l-.25.72a2.93,2.93,0,0,0-1.41-.39c-.77,0-1.07.3-1,.67,0,1.08,3,.38,3.12,2.22,0,.8-.56,1.49-1.92,1.49A3.43,3.43,0,0,1,266.61,347.29Z" fill="#2f2e41" data-secondary="true"/>
<path d="M276,355.45H175.57A11.36,11.36,0,0,1,164.43,345a9.68,9.68,0,0,1,8.8-10.49,8.19,8.19,0,0,1,1,0H274.64a11.36,11.36,0,0,1,11.15,10.41h0a9.85,9.85,0,0,1-2.58,7.45A9.72,9.72,0,0,1,276,355.45ZM174.2,336.07a8.1,8.1,0,0,0-8.25,8,6.42,6.42,0,0,0,0,.88,9.76,9.76,0,0,0,9.57,9H276a8.14,8.14,0,0,0,8.27-8q0-.43,0-.87a9.78,9.78,0,0,0-9.59-9Z" fill="#0071f2" data-primary="true"/>
<path d="M187.47,277.84a3.41,3.41,0,0,1,3.05-3.73,3.75,3.75,0,0,1,.58,0,4,4,0,0,1,3,1.21l-.81.82a2.78,2.78,0,0,0-2-.86,2.28,2.28,0,0,0-2.43,2.12,2.26,2.26,0,0,0,0,.45,2.68,2.68,0,0,0,2.77,2.56,2.31,2.31,0,0,0,1.89-.86l.94.83a3.49,3.49,0,0,1-2.82,1.22A4,4,0,0,1,187.47,277.84Z" fill="#2f2e41" data-secondary="true"/>
<path d="M201.76,274.19l.5,7.29h-1.34l-.22-3.12h-3.77l.22,3.12h-1.36l-.5-7.29h1.34l.22,3h3.74l-.22-3Z" fill="#2f2e41" data-secondary="true"/>
<path d="M209.6,280.34l.08,1.14h-5.46l-.52-7.29H209l.08,1.15h-4l.13,1.89h3.52v1.11h-3.51l.14,2Z" fill="#2f2e41" data-secondary="true"/>
<path d="M210.38,277.84a3.41,3.41,0,0,1,3.06-3.73,3.85,3.85,0,0,1,.59,0,4,4,0,0,1,2.95,1.21l-.81.82a2.75,2.75,0,0,0-2-.86,2.29,2.29,0,0,0-2.44,2.12,2.26,2.26,0,0,0,0,.45,2.71,2.71,0,0,0,2.79,2.56,2.3,2.3,0,0,0,1.87-.86l.94.83a3.49,3.49,0,0,1-2.81,1.22A4,4,0,0,1,210.38,277.84Z" fill="#2f2e41" data-secondary="true"/>
<path d="M221,278.43l-1.08,1.19.12,1.86h-1.34l-.52-7.29h1.36l.25,3.74,3.35-3.74h1.57l-2.88,3.24,3.53,4h-1.56Z" fill="#2f2e41" data-secondary="true"/>
<path d="M225.79,274.19h1.39l.52,7.29h-1.35Z" fill="#2f2e41" data-secondary="true"/>
<path d="M235.58,274.19l.5,7.29H235l-4.36-4.92.34,4.92h-1.33l-.51-7.29h1.11l4.36,4.95-.34-4.95Z" fill="#2f2e41" data-secondary="true"/>
<path d="M242.82,277.76h1.27l.2,2.89a4.2,4.2,0,0,1-2.78.94,4,4,0,0,1-4.18-3.75,3.42,3.42,0,0,1,3.09-3.73,3.85,3.85,0,0,1,.59,0,4,4,0,0,1,3,1.17l-.8.85a2.89,2.89,0,0,0-2.06-.85,2.31,2.31,0,0,0-2.47,2.12,3.38,3.38,0,0,0,0,.45,2.72,2.72,0,0,0,2.82,2.56A2.92,2.92,0,0,0,243,280Z" fill="#2f2e41" data-secondary="true"/>
<path d="M245.56,280.69a.76.76,0,0,1,.63-.86h.15a.91.91,0,0,1,.92.86.79.79,0,0,1-.71.87h-.08A.92.92,0,0,1,245.56,280.69Z" fill="#2f2e41" data-secondary="true"/>
<path d="M248.09,280.69a.77.77,0,0,1,.67-.86h.13a.9.9,0,0,1,.91.86.81.81,0,0,1-.72.87H249A.93.93,0,0,1,248.09,280.69Z" fill="#2f2e41" data-secondary="true"/>
<path d="M250.64,280.69a.77.77,0,0,1,.67-.86h.13a.89.89,0,0,1,.91.86.81.81,0,0,1-.72.87h-.08A.93.93,0,0,1,250.64,280.69Z" fill="#2f2e41" data-secondary="true"/>
<path d="M279,259.87a8.91,8.91,0,0,1-8.1,9.66,6.86,6.86,0,0,1-.91,0H169.61a10.54,10.54,0,0,1-10.37-9.69,8.91,8.91,0,0,1,8.11-9.65,6.77,6.77,0,0,1,.9,0H268.66A10.53,10.53,0,0,1,279,259.87Z" fill="#0071f2" data-primary="true"/>
<g opacity="0.4" style="isolation:isolate">
<path d="M239.82,251.31,241,268.24H169.64a9.22,9.22,0,0,1-9-8.47,7.78,7.78,0,0,1,7.86-8.46Z"/>
</g>
<path d="M268.44,221a22.28,22.28,0,0,0,.38-3.55l5.39-1.41a10.35,10.35,0,0,0-.14-2.08l-5.63-1.35a24.26,24.26,0,0,0-2.38-6.92l3.77-4c-.37-.61-.76-1.2-1.17-1.8l-5.35,1.57a25.15,25.15,0,0,0-5.46-5l1.15-5.47c-.61-.38-1.24-.71-1.88-1L253.49,194a23.84,23.84,0,0,0-3.49-1.17,21.91,21.91,0,0,0-3.6-.65l-1.79-5.49h-2.08l-1,5.53a21.76,21.76,0,0,0-6.79,1.9l-4.25-4a19.71,19.71,0,0,0-1.72,1l2,5.46a20.51,20.51,0,0,0-4.69,5.1l-5.59-1.57c-.31.58-.61,1.19-.89,1.8l4.38,3.93a21.27,21.27,0,0,0-.94,3.41,26.29,26.29,0,0,0-.39,3.53l-5.4,1.43a18.38,18.38,0,0,0,.16,2.08l5.62,1.34a24.28,24.28,0,0,0,2.39,6.92l-3.77,4c.36.61.75,1.22,1.17,1.8l5.34-1.57a25.44,25.44,0,0,0,5.46,5l-1.15,5.48c.61.36,1.25.7,1.9,1l3.62-4.1a27,27,0,0,0,3.49,1.17,24.43,24.43,0,0,0,3.58.64l1.8,5.49H249l1-5.53a21.69,21.69,0,0,0,6.79-1.9l4.26,4c.57-.32,1.15-.68,1.72-1.06l-2-5.44a20.79,20.79,0,0,0,4.69-5.12l5.58,1.57a18,18,0,0,0,.89-1.82l-4.38-3.91A21,21,0,0,0,268.44,221Z" fill="#0071f2" data-primary="true"/>
<g opacity="0.2" style="isolation:isolate">
<path d="M268.44,221a22.28,22.28,0,0,0,.38-3.55l5.39-1.41a10.35,10.35,0,0,0-.14-2.08l-5.63-1.35a24.26,24.26,0,0,0-2.38-6.92l3.77-4c-.37-.61-.76-1.2-1.17-1.8l-5.35,1.57a25.15,25.15,0,0,0-5.46-5l1.15-5.47c-.61-.38-1.24-.71-1.88-1L253.49,194a23.84,23.84,0,0,0-3.49-1.17,21.91,21.91,0,0,0-3.6-.65l-1.79-5.49h-2.08l-1,5.53a21.76,21.76,0,0,0-6.79,1.9l-4.25-4a19.71,19.71,0,0,0-1.72,1l2,5.46a20.51,20.51,0,0,0-4.69,5.1l-5.59-1.57c-.31.58-.61,1.19-.89,1.8l4.38,3.93a21.27,21.27,0,0,0-.94,3.41,26.29,26.29,0,0,0-.39,3.53l-5.4,1.43a18.38,18.38,0,0,0,.16,2.08l5.62,1.34a24.28,24.28,0,0,0,2.39,6.92l-3.77,4c.36.61.75,1.22,1.17,1.8l5.34-1.57a25.44,25.44,0,0,0,5.46,5l-1.15,5.48c.61.36,1.25.7,1.9,1l3.62-4.1a27,27,0,0,0,3.49,1.17,24.43,24.43,0,0,0,3.58.64l1.8,5.49H249l1-5.53a21.69,21.69,0,0,0,6.79-1.9l4.26,4c.57-.32,1.15-.68,1.72-1.06l-2-5.44a20.79,20.79,0,0,0,4.69-5.12l5.58,1.57a18,18,0,0,0,.89-1.82l-4.38-3.91A21,21,0,0,0,268.44,221Z" fill="#fff"/>
</g>
<g opacity="0.3" style="isolation:isolate">
<ellipse cx="245.75" cy="215.16" rx="14.09" ry="15.11" transform="translate(-79.74 242.48) rotate(-46)"/>
</g>
<path d="M218.05,188.15l-5.54.1a30.36,30.36,0,0,0-2.78-4.3l2.51-4.7a37.34,37.34,0,0,0-5.27-4.94l-4.56,2.86a30.87,30.87,0,0,0-4.46-2.48l-.3-5.56a34.57,34.57,0,0,0-6.87-1.8l-2.36,4.85c-.83,0-1.66-.11-2.48-.11a18.64,18.64,0,0,0-2.48.11l-3-4.85a31.64,31.64,0,0,0-6.62,1.8l.49,5.56a26.59,26.59,0,0,0-4.13,2.48l-5-3a30.64,30.64,0,0,0-4.58,4.94l3.13,4.7a23.84,23.84,0,0,0-2.19,4.3L156,188a31.46,31.46,0,0,0-1.33,6.73l5,2.71V200a17.11,17.11,0,0,0,.28,2.48l-4.69,2.69a35.4,35.4,0,0,0,2.27,6.74l5.55-.09a29.5,29.5,0,0,0,2.78,4.3l-2.51,4.69a37.41,37.41,0,0,0,5.27,5l4.56-2.87a30,30,0,0,0,4.46,2.49l.3,5.55a33.71,33.71,0,0,0,7,2l2.36-4.85c.82,0,1.57.11,2.49.11a17.76,17.76,0,0,0,2.47-.11l3,4.85a31.48,31.48,0,0,0,6.62-1.8l-.48-5.56a25.65,25.65,0,0,0,4.11-2.48l5,2.86a30.77,30.77,0,0,0,4.6-4.94l-3.13-4.7a24.5,24.5,0,0,0,2.19-4.3l5.55.1a31.8,31.8,0,0,0,1.33-6.74l-5-2.69v-2.49a15.43,15.43,0,0,0-.28-2.47l4.69-2.71A34.82,34.82,0,0,0,218.05,188.15Z" fill="#0071f2" data-primary="true"/>
<g opacity="0.3" style="isolation:isolate">
<path d="M218.05,188.15l-5.54.1a30.36,30.36,0,0,0-2.78-4.3l2.51-4.7a37.34,37.34,0,0,0-5.27-4.94l-4.56,2.86a30.87,30.87,0,0,0-4.46-2.48l-.3-5.56a34.57,34.57,0,0,0-6.87-1.8l-2.36,4.85c-.83,0-1.66-.11-2.48-.11a18.64,18.64,0,0,0-2.48.11l-3-4.85a31.64,31.64,0,0,0-6.62,1.8l.49,5.56a26.59,26.59,0,0,0-4.13,2.48l-5-3a30.64,30.64,0,0,0-4.58,4.94l3.13,4.7a23.84,23.84,0,0,0-2.19,4.3L156,188a31.46,31.46,0,0,0-1.33,6.73l5,2.71V200a17.11,17.11,0,0,0,.28,2.48l-4.69,2.69a35.4,35.4,0,0,0,2.27,6.74l5.55-.09a29.5,29.5,0,0,0,2.78,4.3l-2.51,4.69a37.41,37.41,0,0,0,5.27,5l4.56-2.87a30,30,0,0,0,4.46,2.49l.3,5.55a33.71,33.71,0,0,0,7,2l2.36-4.85c.82,0,1.57.11,2.49.11a17.76,17.76,0,0,0,2.47-.11l3,4.85a31.48,31.48,0,0,0,6.62-1.8l-.48-5.56a25.65,25.65,0,0,0,4.11-2.48l5,2.86a30.77,30.77,0,0,0,4.6-4.94l-3.13-4.7a24.5,24.5,0,0,0,2.19-4.3l5.55.1a31.8,31.8,0,0,0,1.33-6.74l-5-2.69v-2.49a15.43,15.43,0,0,0-.28-2.47l4.69-2.71A34.82,34.82,0,0,0,218.05,188.15Z" fill="#fff"/>
</g>
<g opacity="0.4" style="isolation:isolate">
<path d="M210.73,200.06a21,21,0,0,1-19.06,22.75,19.68,19.68,0,0,1-2.17.08,24.85,24.85,0,0,1-24.43-22.83,21,21,0,0,1,19.08-22.75,19.23,19.23,0,0,1,2.15-.07A24.85,24.85,0,0,1,210.73,200.06Z"/>
</g>
<path d="M192.38,200.06a4.23,4.23,0,0,1-3.76,4.66,4.89,4.89,0,0,1-.54,0,5,5,0,0,1-4.94-4.69,4.24,4.24,0,0,1,3.87-4.6,3.17,3.17,0,0,1,.43,0A5,5,0,0,1,192.38,200.06Z" fill="#2f2e41" data-secondary="true"/>
<path d="M250.36,215.15a4.24,4.24,0,0,1-3.76,4.67,3.25,3.25,0,0,1-.54,0,5,5,0,0,1-4.94-4.69,4.25,4.25,0,0,1,3.79-4.67,2.9,2.9,0,0,1,.51,0A5,5,0,0,1,250.36,215.15Z" fill="#2f2e41" data-secondary="true"/>
<g opacity="0.2" style="isolation:isolate">
<path d="M244.06,479.3H184.62l49-400h47.89a15.06,15.06,0,0,1,11,4.69Z" fill="#fff"/>
</g>
<g opacity="0.2" style="isolation:isolate">
<polygon points="168.23 479.3 154.84 479.3 203.91 79.28 217.3 79.28 168.23 479.3" fill="#fff"/>
</g>
<rect x="275.73" y="125.76" width="15.09" height="1.56" fill="#2f2e41" data-secondary="true"/>
<rect x="276.03" y="130.23" width="15.09" height="1.56" fill="#2f2e41" data-secondary="true"/>
<rect x="276.34" y="134.69" width="15.09" height="1.56" fill="#2f2e41" data-secondary="true"/>
<path d="M285.58,472.49H269.16L268,456.07h16.43Zm-15-1.56h13.29l-.94-13.3H269.69Z" fill="#fff"/>
<path d="M204,473.9l-15-8.84,13.78-8.82ZM192,465l10.26,6L201.39,459Z" fill="#fff"/>
<path d="M239.15,472.49a8.89,8.89,0,0,1-8.73-8.15,7.65,7.65,0,0,1,7-8.25l.69,0a8.89,8.89,0,0,1,8.73,8.16,7.59,7.59,0,0,1-6.91,8.23A5.09,5.09,0,0,1,239.15,472.49Zm-1-14.86a6,6,0,0,0-6.08,6.62,7.29,7.29,0,0,0,7.16,6.69,6.07,6.07,0,0,0,6.16-6q0-.3,0-.6h0a7.29,7.29,0,0,0-7.19-6.73Z" fill="#fff"/>
<path d="M110.59,178.42a.77.77,0,0,1-.78-.72L106,125.82a.78.78,0,1,1,1.56-.12l3.87,51.9a.79.79,0,0,1-.72.82Z" fill="#0071f2" data-primary="true"/>
<path d="M106.06,116.59a.78.78,0,0,1-.79-.71l-1-13.63a.79.79,0,0,1,1.57-.11l1,13.69a.78.78,0,0,1-.72.84h0Z" fill="#0071f2" data-primary="true"/>
<path d="M150.66,134l.36-1a4.17,4.17,0,0,0,2.34.75c1.06,0,1.56-.38,1.45-.89-.11-1.57-4.11-.52-4.3-3.13,0-1.1.75-2,2.63-2a4.56,4.56,0,0,1,2.33.61l-.33,1a4.14,4.14,0,0,0-1.94-.55c-1.06,0-1.46.41-1.42.94.09,1.46,4.09.5,4.28,3,0,1.11-.75,2.05-2.64,2.05A4.52,4.52,0,0,1,150.66,134Z" fill="#2f2e41" data-secondary="true"/>
<path d="M160.11,132.31l.17,2.43H159l-.17-2.41-3-4.46h1.36l2.25,3.35,1.8-3.35h1.25Z" fill="#2f2e41" data-secondary="true"/>
<path d="M163.05,134l.38-1a4.08,4.08,0,0,0,2.31.75c1.08,0,1.57-.38,1.47-.89-.11-1.57-4.11-.52-4.3-3.13,0-1.1.74-2,2.63-2a4.74,4.74,0,0,1,2.33.61l-.34,1a3.88,3.88,0,0,0-1.93-.55c-1.06,0-1.47.41-1.42.94.09,1.46,4.1.5,4.28,3,0,1.11-.75,2.05-2.64,2.05A4.69,4.69,0,0,1,163.05,134Z" fill="#2f2e41" data-secondary="true"/>
<path d="M170.72,129h-2.27v-1.08h5.83V129H172l.41,5.79h-1.28Z" fill="#2f2e41" data-secondary="true"/>
<path d="M180.71,133.66l.08,1.08h-5.15l-.48-6.87h5.1v1.07h-3.74l.12,1.78H180v1.05h-3.32l.15,1.89Z" fill="#2f2e41" data-secondary="true"/>
<path d="M188.53,134.74l-.33-4.55-2,3.75h-.56l-2.52-3.71.31,4.51h-1.22l-.47-6.87h1l3.05,4.55,2.35-4.55h1.06l.49,6.87Z" fill="#2f2e41" data-secondary="true"/>
<path d="M194,131.74l-.27-3.87H195l.26,3.82c.11,1.42.79,2,1.9,2s1.69-.6,1.56-2l-.26-3.82h1.25l.26,3.87a2.56,2.56,0,0,1-1.92,3.07,2.26,2.26,0,0,1-.86.05A3,3,0,0,1,194,132,1.31,1.31,0,0,1,194,131.74Z" fill="#2f2e41" data-secondary="true"/>
<path d="M207.49,130.31c.11,1.57-1,2.44-2.75,2.44h-1.57l.14,2H202l-.47-6.87h2.82C206.21,127.87,207.38,128.84,207.49,130.31Zm-1.28,0c0-.86-.68-1.36-1.8-1.36h-1.49l.19,2.72h1.49C205.72,131.67,206.27,131.17,206.21,130.31Z" fill="#2f2e41" data-secondary="true"/>
<path d="M208.6,127.87h2.94a3.68,3.68,0,0,1,4,3.37v.06a3.14,3.14,0,0,1-2.77,3.45,3.66,3.66,0,0,1-.74,0h-3Zm3.35,5.79a2.13,2.13,0,0,0,2.36-1.86,2.09,2.09,0,0,0,0-.5,2.49,2.49,0,0,0-2.62-2.35H210l.32,4.69Z" fill="#2f2e41" data-secondary="true"/>
<path d="M221.43,133.14H218l-.56,1.57h-1.32l2.61-6.87H220l3.58,6.87h-1.35Zm-.49-1-1.56-3-1.08,3Z" fill="#2f2e41" data-secondary="true"/>
<path d="M225.09,129h-2.27l-.08-1.08h5.82l.08,1.08h-2.27l.39,5.79h-1.27Z" fill="#2f2e41" data-secondary="true"/>
<path d="M235.08,133.66v1.08h-5.15l-.48-6.87h5l.08,1.07h-3.74l.13,1.78h3.32l.07,1.05H231l.12,1.89Z" fill="#2f2e41" data-secondary="true"/>
<polygon points="133.59 136.51 128.09 131.02 133.59 125.53 134.69 126.62 130.3 131.02 134.69 135.4 133.59 136.51" fill="#2f2e41" data-secondary="true"/>
<rect x="129.21" y="130.23" width="16.36" height="1.56" fill="#2f2e41" data-secondary="true"/>
<path d="M249.08,98.59a3.22,3.22,0,0,1-2.76,3.63,3.55,3.55,0,0,1-.46,0,4,4,0,0,1-3.9-3.58,3.24,3.24,0,0,1,2.88-3.56,2.55,2.55,0,0,1,.39,0A4,4,0,0,1,249.08,98.59Z" fill="#fff"/>
<path d="M250.55,96.73a.74.74,0,0,1-.72-.67c-.16-1.64-2.24-2.91-4.69-2.91s-4.34,1.94-4.24,2.91a.62.62,0,0,1-.55.67h-.06a.76.76,0,0,1-.74-.67c-.15-1.91,2.33-4.24,5.46-4.24s6,1.86,6.26,4.24a.62.62,0,0,1-.53.68Z" fill="#fff"/>
<path d="M251.68,93.63a.75.75,0,0,1-.74-.67c-.14-1.56-2.92-2.91-6.26-2.91S238.9,92.1,239,93a.58.58,0,0,1-.51.67h-.1a.74.74,0,0,1-.72-.67c-.17-1.91,3-4.24,6.93-4.24S252,90.55,252.24,93a.6.6,0,0,1-.51.67Z" fill="#fff"/>
<path d="M252.8,90.54a.75.75,0,0,1-.73-.66c-.11-1.41-3.24-2.92-7.7-2.92s-7.26,2.17-7.19,2.92a.6.6,0,0,1-.53.65h-.08a.74.74,0,0,1-.72-.66c-.16-1.91,3.67-4.25,8.41-4.25,5.08,0,8.93,1.78,9.14,4.25a.6.6,0,0,1-.53.65Z" fill="#fff"/>
<polygon points="260.4 102.17 258.29 102.17 257.76 96.06 259.87 96.06 260.4 102.17" fill="#fff"/>
<polygon points="263.3 102.17 261.19 102.17 260.43 93.62 262.55 93.62 263.3 102.17" fill="#fff"/>
<polygon points="266.19 102.17 264.08 102.17 263.12 91.18 265.24 91.18 266.19 102.17" fill="#fff"/>
<polygon points="269.08 102.17 266.99 102.17 265.8 88.74 267.91 88.74 269.08 102.17" fill="#fff"/>
<polygon points="271.99 102.17 269.88 102.17 268.49 86.3 270.6 86.3 271.99 102.17" fill="#fff"/>
<polygon points="287.84 102.17 279.94 102.17 278.7 88.08 286.6 88.08 287.84 102.17" fill="#fff"/>
<polygon points="285.15 88.08 280.17 88.08 280.08 87.05 285.05 87.05 285.15 88.08" fill="#fff"/>
<path d="M516.88,565.25S625,584.47,697.75,555c0,0,166.25-166,78.47-284.11,0,0-49.06-85.9-144.94-60.84l-152.1,274Z" fill="#0071f2" data-primary="true"/>
<g opacity="0.7">
<path d="M516.88,565.25S625,584.47,697.75,555c0,0,166.25-166,78.47-284.11,0,0-49.06-85.9-144.94-60.84l-152.1,274Z" fill="#fff"/>
</g>
<g opacity="0.2">
<path d="M532.39,440.16s40.56,21.33,89.1,22.14c58.83,1,110.68-38.55,125.86-95.4,12.11-45.33,20.35-114.29-35.77-128.17C626.5,217.69,613,337,613,337s-79.07,64.64-80.58,76.37S532.39,440.16,532.39,440.16Z" fill="#fff"/>
</g>
<path d="M539.91,589.58s6.31,13.23-13.23,21l-23.15,7.22s-12.32,3.6-21.95,9.62c0,0-49.22,30.09-48.51,1.37Z" fill="#e1e1e2"/>
<path d="M517.66,558.62l.37-.52a1.59,1.59,0,0,1,2.47-.15c4,4.45,15.93,18.45,19.41,31.63,0,0-.3,9.93-31.87,19.25A104.7,104.7,0,0,0,484,619.05s-48.4,26.76-51.41,8.12c0,0-6.59-12.79,24.81-30.45,0,0,11.06-8.49,17.78-20.89l27.16-10Z" fill="#0071f2" data-primary="true"/>
<path d="M457.42,603.36a27.83,27.83,0,0,1-1.62,7.25,28.49,28.49,0,0,1-9.72,13c-10.61,7.9-30.28,18.89-53.79,14.71,0,0-20.14-.9-29.46-15.94,0,0-3.6-4.79,2.89-9.5a26.57,26.57,0,0,1,6.13-3.12l14.24-6.56c2.22-1,4.47-2,6.77-2.8a27.27,27.27,0,0,0,14.47-12s6.85-14.46,13.65-9.63l35.46,15.13S458,596.66,457.42,603.36Z" fill="#0071f2" data-primary="true"/>
<g opacity="0.2" style="isolation:isolate">
<path d="M457.42,603.36a27.83,27.83,0,0,1-1.62,7.25,28.49,28.49,0,0,1-9.72,13c-10.61,7.9-30.28,18.89-53.79,14.71,0,0-20.14-.9-29.46-15.94,0,0-3.6-4.79,2.89-9.5a26.57,26.57,0,0,1,6.13-3.12l14.24-6.56c2.22-1,4.47-2,6.77-2.8a27.27,27.27,0,0,0,14.47-12s6.85-14.46,13.65-9.63l35.46,15.13S458,596.66,457.42,603.36Z"/>
</g>
<path d="M416.35,643.67c-32.4,6.08-47.71-5.57-53-11.24a17.76,17.76,0,0,1-3.91-6.54c-3.34-10.21,6.23-13,6.23-13h.09c-6.49,4.71-2.89,9.5-2.89,9.5,9.32,15,29.46,15.94,29.46,15.94,23.51,4.18,43.18-6.81,53.79-14.71a28.49,28.49,0,0,0,9.72-13H456c1.86,15.57-21.09,26.55-31,30.54A45.53,45.53,0,0,1,416.35,643.67Z" fill="#e1e1e2"/>
<path d="M473.17,566.13l2,9.7s25.66,5,42.49-17.21l-7.21-10.82Z" fill="#f9b499"/>
<path d="M492.09,354.12S393.5,346.66,398.31,387c0,0-1.81,11.42,14.13,51.11L466,569.74s35.78,1.51,48.1-21l-46.6-133.49A114.91,114.91,0,0,1,481,417.62Z" fill="#2f2e41" data-secondary="true"/>
<g opacity="0.2" style="isolation:isolate">
<path d="M467.45,415.21s-21-10.52-33.37-24.65l70.2,168.85a29.94,29.94,0,0,0,9.77-10.71Z"/>
</g>
<path d="M555.54,300.36l-36.68-10.22s12-68.24,85.09-82.07l80,4.81s52.91,12,57.72,66.14c0,0,1.51,24.05-2.7,44.79,0,0-12.33-17.13-46.3-29.46,0,0-12.93,90.5-22.25,112.44,0,0-42.24-36.22-124.77-54.11l-4.51-15.34S545.32,331,555.54,300.36Z" fill="#0071f2" data-primary="true"/>
<g opacity="0.4" style="isolation:isolate">
<path d="M555.54,300.36l-10.11-2.72s14.32-25.54,14.32-40.27C559.75,257.37,560.65,279,555.54,300.36Z"/>
</g>
<path d="M692.64,294.35,690,311.57s-33.87-27.07-45.71-35.13a12.07,12.07,0,0,1-4.42-5.56c-3.11-8-11.1-26.49-19.09-28.84,0,0-42.09-18-42.69-11.73,0,0-2.7,1.81,20.75,12.63,0,0-3.31,1.5-2.11,7.22,0,0-5.41,1.8-2.4,8.11,0,0-5.53,2.31-2.88,6.91a7.52,7.52,0,0,0,2.89,2.79l24.82,13.7a9.62,9.62,0,0,1,4.1,4.43c7.32,16.18,45.23,94.84,84.11,81.61,0,0,13.23-8.42,31.57-43.9C738.94,323.81,723.9,304.57,692.64,294.35Z" fill="#f9b499"/>
<path d="M692.64,294.35s29.46,9,46.3,29.46c0,0-31.27-21.43-31.27-9,0,.6,2.1,24.95,2.1,24.95S703.61,318,690,311.57Z" fill="#f7a48b"/>
<g opacity="0.4" style="isolation:isolate">
<path d="M699.55,257.37l-6.91,37L690,311.57l-7.55-6.1S692.64,267.29,699.55,257.37Z"/>
</g>
<g opacity="0.2" style="isolation:isolate">
<path d="M692.64,294.35l2.37-11.7s31.38,0,46.52,20.44c0,0-1.09,14.41-2.59,20.72C738.94,323.81,726,305.78,692.64,294.35Z" fill="#fff"/>
</g>
<g opacity="0.2" style="isolation:isolate">
<path d="M518.86,290.14s1.82-9.55,4.52-14.69l28.89,8.19s-4.63,11-6.84,14Z" fill="#fff"/>
</g>
<path d="M490.81,257.73c2.57,11.69,9.15,40.48,15.47,57.78A26.44,26.44,0,0,0,544,329.63l.7-.4s4.81-9,10.82-28.87l-28.7-7.75-17.11-49.78a5.48,5.48,0,0,1,.21-4c1.72-3.86,4-14.1-8.21-30.72a55.48,55.48,0,0,1-2.42-13,1.58,1.58,0,0,0-2.08-1.46c-2.45.8-5.79,4-2.72,16.31,0,0,2.71,11.12-5.11,4.81l-4.59-3a25.45,25.45,0,0,1-5.68-5.08l-14.3-17.3a3.73,3.73,0,0,0-4.53-1h0a3.72,3.72,0,0,0-1.32,5.55l11.89,16a.58.58,0,0,1-.79.82l-20.71-13.88a3.14,3.14,0,0,0-4.56,1.2h0a3.14,3.14,0,0,0,.79,3.81l18.93,15.9a.17.17,0,0,1-.2.28l-15.82-9.69a2.66,2.66,0,0,0-3.73,1h0a2.66,2.66,0,0,0,.77,3.39l20.13,14.83a1.93,1.93,0,0,1,.78,1.72h0a1.94,1.94,0,0,1-2.59,1.67l-14.31-5.14a2.6,2.6,0,0,0-3.36,1.67h0a2.58,2.58,0,0,0,1.44,3.14c6,2.65,23.76,10.63,37.3,18.89A12.84,12.84,0,0,1,490.81,257.73Z" fill="#f9b499"/>
<path d="M490.3,236.13c-8-6-13.85-.86-14.09-.63l-.67-.75c.06-.06,6.72-5.91,15.36.58Z" fill="#f7a48b"/>
<path d="M501.6,238.92c-14.32-3.66-15.39-21-15.4-21.21l1-.05c0,.17,1.06,16.81,14.66,20.29Z" fill="#f7a48b"/>
<path d="M670.39,406.79s-8.12,84.48-127.17,21.65c0,0,6.61,36.08-33.07,96.81l-42.7,59.22a90.69,90.69,0,0,1-18.31-.86c-8.17-1.21-17.54-3.84-24.68-9.36,0,0,42.28-80,47.2-153.64.18-2.79.26-5.58.26-8.38-.05-11.94,1.66-59.82,31.91-61.66,0,0,27.66-3.3,49.61,5.41,0,0,48.77.62,102.67,38.64C661,398.07,665.43,402.71,670.39,406.79Z" fill="#2f2e41" data-secondary="true"/>
<g opacity="0.2" style="isolation:isolate">
<path d="M670.39,406.79s-8.12,84.48-127.17,21.65c0,0,6.61,36.08-33.07,96.81l-42.7,59.22a90.69,90.69,0,0,1-18.31-.86c13.85-11.76,43-45.63,68.22-135l8.12-34.87s2.1-10.83,15.63-3.91c0,0,107.24,50.92,114.4-15.78C660.4,397.46,665.43,402.71,670.39,406.79Z"/>
</g>
<path d="M424.46,574.25,420,580s15,15.94,35.48,15.34l7.21-10.83S439.49,585.68,424.46,574.25Z" fill="#f9b499"/>
<path d="M626.19,195.44v9.92A64.28,64.28,0,0,0,604,208.07s37.28,39.38,80,4.81c0,0-4.51-3.31-20.45-5.41l3-51.72Z" fill="#f9b499"/>
<path d="M626.19,195.44v9.92s30.58-3.59,35.74-36.67Z" fill="#f7a48b"/>
<path d="M605.9,119.83S601.49,138,608,174.42a23.17,23.17,0,0,0,7.79,13.7c7.94,6.67,22.51,9.48,42.29-26.05l-.3-44.2S632.81,102.54,605.9,119.83Z" fill="#f9b499"/>
<path d="M655.36,160.56s0-31.77-7.23-40.54A40.89,40.89,0,0,1,668,130.2l1.21,12s-6.59,2.77-7.51,17Z" fill="#2f2e41" data-secondary="true"/>
<g opacity="0.2" style="isolation:isolate">
<path d="M655.36,160.56s0-31.77-7.23-40.54A40.89,40.89,0,0,1,668,130.2l1.21,12s-6.59,2.77-7.51,17Z" fill="#fff"/>
</g>
<path d="M606.72,167.24s5.87,21.11,9.78,16.13a3.58,3.58,0,0,0,.5-.87c.49-1.18,2.42-5.22,5.28-3.86a3.3,3.3,0,0,1,1.72,2.09c.73,2.44,3.67,8.32,14.22,0,0,0,13.83-6.92,17.14-20.15l6.32-1.31s.36,2.2,3.78,3.56c0,0-20,38.41-46.71,33.41a11.21,11.21,0,0,1-8.51-7.15C608.77,185.08,607.29,178.38,606.72,167.24Z" fill="#2f2e41" data-secondary="true"/>
<ellipse cx="668.74" cy="151.4" rx="11.88" ry="7.97" transform="translate(339.01 752.57) rotate(-74.01)" fill="#f9b499"/>
<path d="M668,130.2s-22.39-22.4-64.33-5.41c0,0-11.43,5.41-17.44-3l5.71-.9S586.51,117,585,106.75c0,0,.3.9,4.51,3.31a30.47,30.47,0,0,1,1.2-17.74s1.8,13.23,16.53,10.22c0,0-4.21-5.41,1.21-10.82,0,0,0,7.81,14.13,6C622.59,97.73,666.78,89.91,668,130.2Z" fill="#2f2e41" data-secondary="true"/>
<g opacity="0.2">
<path d="M593.17,121.66c-1.09,0-1.49-.3-1.62-.45a.48.48,0,0,1,0-.7.5.5,0,0,1,.67,0c.14.08,2.94,1.47,17.73-6.45a45,45,0,0,1,24.32-5.33,51,51,0,0,1,27.36,10.55.5.5,0,0,1,.1.7.51.51,0,0,1-.7.1,50.06,50.06,0,0,0-26.83-10.36,43.94,43.94,0,0,0-23.77,5.22C600,120.53,595.29,121.66,593.17,121.66Z"/>
</g>
<g opacity="0.2">
<path d="M594.89,113.05c-5,0-5.81-2.71-5.86-2.86a.5.5,0,0,1,1-.27c0,.06,1.3,3.76,10.43,1.27a31.9,31.9,0,0,0,5.49-2.1c4.22-2.06,15.2-6.68,26.05-5.24a.49.49,0,0,1,.43.56.5.5,0,0,1-.56.43c-10.59-1.41-21.34,3.13-25.48,5.15a32.8,32.8,0,0,1-5.67,2.16A22.26,22.26,0,0,1,594.89,113.05Z"/>
</g>
<rect x="600.52" y="253.99" width="1" height="14.73" transform="translate(112.17 697.88) rotate(-65.27)" fill="#f7a48b"/>
<rect x="603.22" y="245.51" width="1" height="15.16" transform="translate(136.86 711.97) rotate(-67.25)" fill="#f7a48b"/>
<rect x="605.03" y="238.29" width="1" height="15.16" transform="translate(144.62 709.21) rotate(-67.25)" fill="#f7a48b"/>
<g opacity="0.2" style="isolation:isolate">
<polygon points="389.59 272.1 420.55 350.87 551.33 350.87 523.67 271.2 389.59 272.1" fill="#fff"/>
</g>
<path d="M553.44,351.77h32.17a2.1,2.1,0,0,1,2.1,2.1v0a2.1,2.1,0,0,1-2.1,2.1H553.44a0,0,0,0,1,0,0v-4.21A0,0,0,0,1,553.44,351.77Z" fill="#b3b3b3"/>
<polygon points="389.59 272.1 420.55 350.87 551.33 350.87 523.67 271.2 389.59 272.1" fill="#b3b3b3"/>
<path d="M389.59,272.1l2.7-3.6,133.6.58,31.1,86.7H420.3a2.45,2.45,0,0,1-2.45-2.45h0a2.46,2.46,0,0,1,2.45-2.46h131L523.67,271.2Z" fill="#e1e1e2"/>
</svg>